<?xml version="1.0" encoding="UTF-8"?><svg id="Layer_1" xmlns="http://www.w3.org/2000/svg" viewBox="0 0 1300 900"><defs><style>.cls-1{fill:#191919;}</style></defs><path class="cls-1" d="m525.52,433.82h16.11l3.36,9.39h8.65l-14.91-39.86h-10.31l-14.92,39.86h8.6l3.42-9.39Zm8.03-22.22l5.24,14.47h-10.48l5.24-14.47Z"/><rect class="cls-1" x="555.7" y="399.36" width="8.14" height="43.85"/><path class="cls-1" d="m583.09,443.89c3.57,0,6.74-.89,9.51-2.67,2.78-1.78,4.7-4.45,5.81-7.98h-8.43c-.53,1.22-1.42,2.18-2.67,2.88-1.26.7-2.68,1.06-4.27,1.06-2.21,0-4.05-.65-5.53-1.94-1.48-1.3-2.35-3.15-2.62-5.58h24.03c.42-5.24-.86-9.62-3.84-13.16-2.98-3.53-7.03-5.29-12.16-5.29-4.75,0-8.65,1.55-11.73,4.67-3.07,3.11-4.61,7.02-4.61,11.73s1.54,8.6,4.61,11.67c3.08,3.08,7.04,4.61,11.9,4.61Zm-5.07-24.4c1.29-1.05,2.91-1.57,4.85-1.57s3.48.52,4.77,1.57c1.3,1.04,2.17,2.44,2.62,4.19h-14.97c.53-1.75,1.44-3.15,2.73-4.19Z"/><path class="cls-1" d="m612.62,421.82c1.77-1.5,4.09-2.25,6.97-2.25.5,0,1.17.05,2,.12v-8.37c-.68-.08-1.29-.11-1.82-.11-4.6,0-7.86,2.05-9.8,6.15v-5.47h-8.14v31.32h8.14v-13.95c0-3.45.88-5.93,2.65-7.44Z"/><path class="cls-1" d="m628.71,407.05c1.48,0,2.69-.46,3.65-1.37.94-.91,1.42-2.07,1.42-3.48s-.48-2.55-1.42-3.44c-.96-.89-2.17-1.34-3.65-1.34s-2.65.46-3.62,1.37c-.96.91-1.45,2.05-1.45,3.41s.49,2.57,1.45,3.48c.97.91,2.18,1.37,3.62,1.37Z"/><rect class="cls-1" x="624.61" y="411.89" width="8.14" height="31.32"/><path class="cls-1" d="m660.03,439v4.21h8.14l.06-31.32h-8.14v4.38c-2.43-3.38-5.74-5.06-9.91-5.06s-7.45,1.52-10.17,4.58c-2.71,3.06-4.07,6.98-4.07,11.76s1.34,8.7,4.05,11.76c2.69,3.06,6.11,4.58,10.24,4.58s7.41-1.62,9.8-4.89Zm-15.89-11.45c0-2.54.74-4.62,2.22-6.21,1.49-1.59,3.38-2.39,5.7-2.39s4.23.8,5.75,2.39,2.28,3.67,2.28,6.21-.76,4.62-2.28,6.21c-1.52,1.59-3.43,2.39-5.75,2.39s-4.17-.8-5.67-2.39c-1.5-1.59-2.25-3.67-2.25-6.21Z"/><polygon class="cls-1" points="544.6 452.31 513.5 452.31 513.5 460.05 524.95 460.05 524.95 492.17 533.09 492.17 533.09 460.05 544.6 460.05 544.6 452.31"/><path class="cls-1" d="m557.06,460.17c-4.74,0-8.65,1.55-11.72,4.66-3.08,3.12-4.62,7.03-4.62,11.74s1.54,8.6,4.62,11.67c3.07,3.08,7.04,4.61,11.9,4.61,3.57,0,6.74-.89,9.51-2.67,2.77-1.79,4.71-4.45,5.81-7.98h-8.43c-.53,1.22-1.42,2.18-2.68,2.88-1.25.7-2.68,1.06-4.27,1.06-2.2,0-4.04-.65-5.52-1.94-1.49-1.3-2.35-3.15-2.62-5.59h24.03c.42-5.24-.86-9.62-3.84-13.15-2.98-3.53-7.04-5.29-12.17-5.29Zm-7.63,12.46c.54-1.74,1.45-3.14,2.74-4.18,1.29-1.05,2.91-1.57,4.84-1.57s3.49.52,4.79,1.57c1.29,1.04,2.16,2.44,2.62,4.18h-14.99Z"/><path class="cls-1" d="m591.98,467.68c1.74,0,3.28.44,4.58,1.31,1.31.87,2.19,2.13,2.65,3.76h8.37c-.56-3.87-2.32-6.94-5.26-9.2-2.95-2.25-6.4-3.38-10.34-3.38-4.71,0-8.61,1.55-11.71,4.66-3.09,3.12-4.64,7.01-4.64,11.68s1.55,8.56,4.64,11.67c3.1,3.12,6.99,4.67,11.65,4.67,3.95,0,7.4-1.11,10.34-3.33s4.72-5.32,5.32-9.31h-8.37c-.46,1.67-1.35,2.94-2.67,3.81-1.33.88-2.87,1.32-4.62,1.32-2.39,0-4.34-.82-5.84-2.45-1.49-1.64-2.23-3.76-2.19-6.38-.04-2.62.69-4.74,2.17-6.38,1.47-1.63,3.45-2.45,5.92-2.45Z"/><path class="cls-1" d="m628.31,460.17c-4.13,0-7.38,1.65-9.74,4.95v-16.81h-8.14v43.86h8.14v-16.46c0-5.2,2.34-7.8,7.01-7.8,2.08,0,3.59.53,4.5,1.59.91,1.07,1.37,2.66,1.37,4.78v17.89h8.14v-19.65c0-3.84-1.01-6.85-3.01-9.05-2.02-2.21-4.77-3.3-8.27-3.3Z"/><path class="cls-1" d="m661.46,460.17c-4.14,0-7.39,1.65-9.74,4.95v-4.27h-8.14v31.32h8.14v-16.46c0-5.2,2.35-7.8,7.06-7.8,2.09,0,3.59.53,4.5,1.59.91,1.07,1.37,2.66,1.37,4.78v17.89h8.14v-19.65c0-3.84-1-6.85-3.02-9.05-2.01-2.21-4.78-3.3-8.31-3.3Z"/><path class="cls-1" d="m693.02,460.17c-4.55,0-8.41,1.55-11.56,4.66-3.15,3.12-4.73,7.01-4.73,11.68s1.57,8.56,4.7,11.67c3.14,3.12,6.99,4.67,11.59,4.67s8.51-1.54,11.65-4.64c3.13-3.09,4.7-6.99,4.7-11.7s-1.59-8.56-4.76-11.68c-3.17-3.11-7.04-4.66-11.59-4.66Zm5.78,22.55c-1.54,1.59-3.47,2.39-5.78,2.39s-4.24-.8-5.78-2.39c-1.54-1.6-2.31-3.67-2.31-6.21s.77-4.62,2.31-6.21,3.47-2.39,5.78-2.39,4.24.8,5.78,2.39,2.31,3.66,2.31,6.21-.77,4.61-2.31,6.21Z"/><rect class="cls-1" x="712.5" y="448.31" width="8.14" height="43.86"/><path class="cls-1" d="m740.06,460.17c-4.56,0-8.41,1.55-11.56,4.66-3.15,3.12-4.73,7.01-4.73,11.68s1.57,8.56,4.7,11.67c3.13,3.12,6.99,4.67,11.59,4.67s8.52-1.54,11.64-4.64c3.14-3.09,4.7-6.99,4.7-11.7s-1.58-8.56-4.75-11.68c-3.17-3.11-7.03-4.66-11.59-4.66Zm5.78,22.55c-1.53,1.59-3.46,2.39-5.78,2.39s-4.24-.8-5.78-2.39c-1.54-1.6-2.31-3.67-2.31-6.21s.77-4.62,2.31-6.21,3.47-2.39,5.78-2.39,4.25.8,5.78,2.39c1.54,1.59,2.31,3.66,2.31,6.21s-.77,4.61-2.31,6.21Z"/><path class="cls-1" d="m783.98,465.18c-2.39-3.35-5.67-5.01-9.85-5.01s-7.47,1.51-10.2,4.55c-2.73,3.04-4.1,6.89-4.1,11.56s1.36,8.53,4.07,11.56c2.72,3.04,6.12,4.56,10.23,4.56s7.42-1.64,9.85-4.9v4.5c0,5.24-2.52,7.86-7.58,7.86-3.98,0-6.39-1.59-7.23-4.79h-8.43c.57,3.91,2.34,6.9,5.33,8.94,2.98,2.06,6.5,3.09,10.56,3.09,4.71,0,8.46-1.4,11.28-4.19,2.81-2.8,4.21-6.5,4.21-11.14v-30.92h-8.14v4.33Zm-2.28,17.14c-1.52,1.55-3.44,2.33-5.75,2.33s-4.16-.79-5.66-2.36c-1.51-1.58-2.26-3.58-2.26-6.01s.75-4.43,2.26-6.01c1.5-1.57,3.38-2.36,5.66-2.36s4.18.79,5.72,2.36c1.54,1.58,2.31,3.59,2.31,6.01s-.76,4.48-2.28,6.04Z"/><rect class="cls-1" x="796" y="460.85" width="8.14" height="31.32"/><path class="cls-1" d="m800.1,446.38c-1.45,0-2.66.46-3.62,1.37-.96.91-1.45,2.05-1.45,3.41s.49,2.57,1.45,3.48c.96.91,2.17,1.37,3.62,1.37s2.69-.46,3.65-1.37c.94-.91,1.42-2.07,1.42-3.48s-.48-2.55-1.42-3.44c-.96-.9-2.17-1.34-3.65-1.34Z"/><path class="cls-1" d="m823.68,460.17c-4.76,0-8.66,1.55-11.74,4.66-3.07,3.12-4.61,7.03-4.61,11.74s1.54,8.6,4.61,11.67,7.04,4.61,11.9,4.61c3.58,0,6.74-.89,9.51-2.67,2.78-1.79,4.71-4.45,5.82-7.98h-8.44c-.53,1.22-1.42,2.18-2.67,2.88s-2.67,1.06-4.27,1.06c-2.2,0-4.05-.65-5.52-1.94-1.49-1.3-2.36-3.15-2.63-5.59h24.04c.41-5.24-.87-9.62-3.85-13.15-2.98-3.53-7.03-5.29-12.15-5.29Zm-7.64,12.46c.53-1.74,1.44-3.14,2.73-4.18,1.3-1.05,2.91-1.57,4.85-1.57s3.49.52,4.78,1.57c1.29,1.04,2.17,2.44,2.62,4.18h-14.98Z"/><path class="cls-1" d="m870.15,478.56c-.57-1.07-1.53-1.98-2.85-2.73-1.33-.76-2.74-1.39-4.22-1.86-1.48-.47-3.49-.99-6.03-1.56-2.54-.57-4.18-1.01-4.9-1.31-.73-.3-1.08-.8-1.08-1.48,0-1.75,1.74-2.62,5.24-2.62s5.41,1.06,6.09,3.18h8.25c-.56-3.07-2-5.51-4.32-7.31-2.31-1.8-5.56-2.7-9.73-2.7s-7.52.91-10,2.75c-2.49,1.85-3.74,4.4-3.74,7.67,0,2.62.92,4.58,2.77,5.89,1.84,1.31,5.09,2.51,9.77,3.62.41.11.91.22,1.47.33.58.12,1.02.21,1.34.29.32.08.71.18,1.14.29.44.11.78.21,1,.28.23.08.48.17.77.29.29.11.5.24.66.37.15.13.29.27.42.42.13.15.23.33.28.52.06.19.09.39.09.63,0,1.7-1.76,2.56-5.29,2.56-4.37,0-6.89-1.41-7.58-4.22h-8.26c.57,3.42,2.26,6.1,5.07,8.06,2.81,1.95,6.32,2.93,10.54,2.93s7.4-.89,10.02-2.67c2.62-1.79,3.93-4.37,3.93-7.75,0-1.52-.29-2.8-.85-3.87Z"/><path class="cls-1" d="m452.39,401.16l-9.52,18.23,29.83,17.22,22.82-43.7h-29.51c-5.72,0-10.97,3.18-13.62,8.26Z"/><path class="cls-1" d="m471.33,455.18l12.51-7.22-13.12-7.58-29.82-17.22-11.9-6.86v63.32l12.49-7.21,1.98,3.78,8.92,17.07c2.65,5.08,7.89,8.26,13.62,8.26h29.51l-22.23-42.55-1.97-3.78Z"/></svg>